<svg xmlns="http://www.w3.org/2000/svg" viewBox="0 0 398.45 406"><defs><style>.cls-1{fill:#1b9eb4;}.cls-2{fill:#fff;}</style></defs><title>Asset 1dbcLogo</title><g id="Layer_2" data-name="Layer 2"><g id="Landing_1" data-name="Landing 1"><path class="cls-1" d="M305.58,185.45a104.08,104.08,0,0,0-200-19H2.33a289,289,0,0,0,0,73.19H105.56a104.08,104.08,0,0,0,200-54.14Z"/><path class="cls-2" d="M89.85,148a125.82,125.82,0,0,1,226.31,0h82.3C374.47,62.61,296.05,0,203,0S31.53,62.61,7.55,148Z"/><path class="cls-2" d="M315.65,259a125.8,125.8,0,0,1-225.3,0H7.84C32.15,343.88,110.31,406,203,406s170.85-62.12,195.16-147Z"/></g></g></svg>