<?xml version="1.0" encoding="utf-8"?>
<!-- Generator: Adobe Illustrator 21.1.0, SVG Export Plug-In . SVG Version: 6.00 Build 0)  -->
<svg version="1.1" id="Capa_1" xmlns="http://www.w3.org/2000/svg" xmlns:xlink="http://www.w3.org/1999/xlink" x="0px" y="0px"
	 viewBox="0 0 458.3 458.3" style="enable-background:new 0 0 458.3 458.3;" xml:space="preserve">
<style type="text/css">
	.st0{fill:#F9F9F9;}
</style>
<g>
	<path class="st0" d="M331.1,25.3l-52.9-0.1c-59.4,0-97.8,39.4-97.8,100.4v46.3h-53.2c-4.6,0-8.3,3.7-8.3,8.3v67.1
		c0,4.6,3.7,8.3,8.3,8.3h53.2v169.2c0,4.6,3.7,8.3,8.3,8.3h69.4c4.6,0,8.3-3.7,8.3-8.3V255.5h62.2c4.6,0,8.3-3.7,8.3-8.3l0-67.1
		c0-2.2-0.9-4.3-2.4-5.9c-1.6-1.6-3.7-2.4-5.9-2.4h-62.2v-39.2c0-18.9,4.5-28.4,29.1-28.4l35.6,0c4.6,0,8.3-3.7,8.3-8.3V33.6
		C339.4,29,335.7,25.3,331.1,25.3z"/>
</g>
</svg>
